<svg width="13" height="13" viewBox="0 0 13 13" fill="none" xmlns="http://www.w3.org/2000/svg">
<path d="M3.79167 3.79167H3.79708M3.79167 1.625H6.5C6.77733 1.625 7.05467 1.73062 7.26592 1.94242L11.0576 5.73408C11.2607 5.93724 11.3748 6.21274 11.3748 6.5C11.3748 6.78726 11.2607 7.06276 11.0576 7.26592L7.26592 11.0576C7.06276 11.2607 6.78726 11.3748 6.5 11.3748C6.21274 11.3748 5.93724 11.2607 5.73408 11.0576L1.94242 7.26592C1.84167 7.16545 1.76176 7.04607 1.70729 6.91463C1.65282 6.78319 1.62485 6.64228 1.625 6.5V3.79167C1.625 3.21703 1.85327 2.66593 2.2596 2.2596C2.66593 1.85327 3.21703 1.625 3.79167 1.625Z" stroke="#B3B3B3" stroke-width="1.5" stroke-linecap="round" stroke-linejoin="round"/>
</svg>
